{
	"asset":{
		"generator":"Khronos glTF Blender I/O v4.2.60",
		"version":"2.0"
	},
	"scene":0,
	"scenes":[
		{
			"name":"Scene",
			"nodes":[
				0,
				1,
				2,
				3,
				4
			]
		}
	],
	"nodes":[
		{
			"mesh":0,
			"name":"Sphere",
			"rotation":[
				-4.8790068831294775e-05,
				0.9062755107879639,
				0.0011466997675597668,
				0.4226858913898468
			]
		},
		{
			"name":"Camera.001",
			"rotation":[
				0.213128000497818,
				-0.7664641737937927,
				0.5257568359375,
				0.3011459708213806
			],
			"translation":[
				-3.764115571975708,
				2.126060724258423,
				-3.931056499481201
			]
		},
		{
			"name":"Sun",
			"rotation":[
				-0.2662772238254547,
				0.5280945301055908,
				0.3969491720199585,
				0.7018860578536987
			],
			"translation":[
				-3.9288549423217773,
				0.526311993598938,
				2.1215131282806396
			]
		},
		{
			"mesh":1,
			"name":"Cylindre",
			"rotation":[
				0.6906024217605591,
				-0.12067542970180511,
				0.044942133128643036,
				0.7116782665252686
			],
			"scale":[
				0.2486475110054016,
				0.4384844899177551,
				0.28729870915412903
			],
			"translation":[
				0.2087640017271042,
				-0.39485207200050354,
				-1.0339200496673584
			]
		},
		{
			"mesh":2,
			"name":"Icosph\u00e8re",
			"rotation":[
				-0.13258549571037292,
				0.837436854839325,
				-0.36259281635284424,
				0.3868427276611328
			],
			"scale":[
				1.959886908531189,
				1.3017096519470215,
				1.6434872150421143
			],
			"translation":[
				0.21876400709152222,
				-0.3939622640609741,
				-1.0839200019836426
			]
		}
	],
	"materials":[
		{
			"doubleSided":true,
			"name":"Material.009",
			"pbrMetallicRoughness":{
				"baseColorFactor":[
					0.006216820329427719,
					0.37804681062698364,
					0.6827744245529175,
					1
				],
				"metallicFactor":0,
				"roughnessFactor":0.5
			}
		},
		{
			"doubleSided":true,
			"name":"Material.008",
			"pbrMetallicRoughness":{
				"baseColorFactor":[
					0.04057749733328819,
					0.8162760734558105,
					0.11648337543010712,
					1
				],
				"metallicFactor":0,
				"roughnessFactor":0.5
			}
		},
		{
			"doubleSided":true,
			"name":"Material.010",
			"pbrMetallicRoughness":{
				"baseColorFactor":[
					0.05683440342545509,
					0.24227656424045563,
					0.10035599768161774,
					1
				],
				"metallicFactor":0,
				"roughnessFactor":0.5
			}
		},
		{
			"doubleSided":true,
			"name":"Material.005",
			"pbrMetallicRoughness":{
				"baseColorFactor":[
					0.6434436440467834,
					0.759128212928772,
					0.805510401725769,
					1
				],
				"metallicFactor":0,
				"roughnessFactor":0.5
			}
		},
		{
			"doubleSided":true,
			"name":"Mat\u00e9riau.001",
			"pbrMetallicRoughness":{
				"baseColorFactor":[
					0.5518128871917725,
					0.0013172165490686893,
					0.0006718825316056609,
					1
				],
				"metallicFactor":0,
				"roughnessFactor":0.5
			}
		},
		{
			"doubleSided":true,
			"name":"Mat\u00e9riau",
			"pbrMetallicRoughness":{
				"baseColorFactor":[
					0.8003311157226562,
					0.0050242263823747635,
					0.008647849783301353,
					1
				],
				"metallicFactor":0,
				"roughnessFactor":0.5
			}
		}
	],
	"meshes":[
		{
			"name":"Sphere.002",
			"primitives":[
				{
					"attributes":{
						"POSITION":0,
						"NORMAL":1,
						"TEXCOORD_0":2
					},
					"indices":3,
					"material":0
				},
				{
					"attributes":{
						"POSITION":4,
						"NORMAL":5,
						"TEXCOORD_0":6
					},
					"indices":7,
					"material":1
				},
				{
					"attributes":{
						"POSITION":8,
						"NORMAL":9,
						"TEXCOORD_0":10
					},
					"indices":11,
					"material":2
				},
				{
					"attributes":{
						"POSITION":12,
						"NORMAL":13,
						"TEXCOORD_0":14
					},
					"indices":15,
					"material":3
				}
			]
		},
		{
			"name":"Cylindre",
			"primitives":[
				{
					"attributes":{
						"POSITION":16,
						"NORMAL":17,
						"TEXCOORD_0":18
					},
					"indices":19,
					"material":4
				}
			]
		},
		{
			"name":"Icosph\u00e8re",
			"primitives":[
				{
					"attributes":{
						"POSITION":20,
						"NORMAL":21,
						"TEXCOORD_0":22
					},
					"indices":23,
					"material":5
				}
			]
		}
	],
	"accessors":[
		{
			"bufferView":0,
			"componentType":5126,
			"count":3642,
			"max":[
				0.999829113483429,
				1.0009301900863647,
				1.0017833709716797
			],
			"min":[
				-1.0001885890960693,
				-0.9818867444992065,
				-0.9991334080696106
			],
			"type":"VEC3"
		},
		{
			"bufferView":1,
			"componentType":5126,
			"count":3642,
			"type":"VEC3"
		},
		{
			"bufferView":2,
			"componentType":5126,
			"count":3642,
			"type":"VEC2"
		},
		{
			"bufferView":3,
			"componentType":5123,
			"count":3684,
			"type":"SCALAR"
		},
		{
			"bufferView":4,
			"componentType":5126,
			"count":2565,
			"max":[
				1.0460973978042603,
				1.0391769409179688,
				1.0562149286270142
			],
			"min":[
				-1.0424513816833496,
				-0.916206955909729,
				-1.0396809577941895
			],
			"type":"VEC3"
		},
		{
			"bufferView":5,
			"componentType":5126,
			"count":2565,
			"type":"VEC3"
		},
		{
			"bufferView":6,
			"componentType":5126,
			"count":2565,
			"type":"VEC2"
		},
		{
			"bufferView":7,
			"componentType":5123,
			"count":2565,
			"type":"SCALAR"
		},
		{
			"bufferView":8,
			"componentType":5126,
			"count":2635,
			"max":[
				1.0460973978042603,
				1.0391769409179688,
				1.0562149286270142
			],
			"min":[
				-1.0424513816833496,
				-0.9818867444992065,
				-1.0396809577941895
			],
			"type":"VEC3"
		},
		{
			"bufferView":9,
			"componentType":5126,
			"count":2635,
			"type":"VEC3"
		},
		{
			"bufferView":10,
			"componentType":5126,
			"count":2635,
			"type":"VEC2"
		},
		{
			"bufferView":11,
			"componentType":5123,
			"count":5421,
			"type":"SCALAR"
		},
		{
			"bufferView":12,
			"componentType":5126,
			"count":428,
			"max":[
				0.36853307485580444,
				-0.8757662773132324,
				0.4481832981109619
			],
			"min":[
				-0.39067327976226807,
				-1.0673469305038452,
				-0.4113941490650177
			],
			"type":"VEC3"
		},
		{
			"bufferView":13,
			"componentType":5126,
			"count":428,
			"type":"VEC3"
		},
		{
			"bufferView":14,
			"componentType":5126,
			"count":428,
			"type":"VEC2"
		},
		{
			"bufferView":15,
			"componentType":5123,
			"count":498,
			"type":"SCALAR"
		},
		{
			"bufferView":16,
			"componentType":5126,
			"count":194,
			"max":[
				0.02010878548026085,
				0.1780894696712494,
				0.017403490841388702
			],
			"min":[
				-0.02010878548026085,
				-0.1780894696712494,
				-0.017403490841388702
			],
			"type":"VEC3"
		},
		{
			"bufferView":17,
			"componentType":5126,
			"count":194,
			"type":"VEC3"
		},
		{
			"bufferView":18,
			"componentType":5126,
			"count":194,
			"type":"VEC2"
		},
		{
			"bufferView":19,
			"componentType":5123,
			"count":372,
			"type":"SCALAR"
		},
		{
			"bufferView":20,
			"componentType":5126,
			"count":240,
			"max":[
				0.015307008288800716,
				0.023046614602208138,
				0.0182538703083992
			],
			"min":[
				-0.015307008288800716,
				-0.023046614602208138,
				-0.0182538703083992
			],
			"type":"VEC3"
		},
		{
			"bufferView":21,
			"componentType":5126,
			"count":240,
			"type":"VEC3"
		},
		{
			"bufferView":22,
			"componentType":5126,
			"count":240,
			"type":"VEC2"
		},
		{
			"bufferView":23,
			"componentType":5123,
			"count":240,
			"type":"SCALAR"
		}
	],
	"bufferViews":[
		{
			"buffer":0,
			"byteLength":43704,
			"byteOffset":0,
			"target":34962
		},
		{
			"buffer":0,
			"byteLength":43704,
			"byteOffset":43704,
			"target":34962
		},
		{
			"buffer":0,
			"byteLength":29136,
			"byteOffset":87408,
			"target":34962
		},
		{
			"buffer":0,
			"byteLength":7368,
			"byteOffset":116544,
			"target":34963
		},
		{
			"buffer":0,
			"byteLength":30780,
			"byteOffset":123912,
			"target":34962
		},
		{
			"buffer":0,
			"byteLength":30780,
			"byteOffset":154692,
			"target":34962
		},
		{
			"buffer":0,
			"byteLength":20520,
			"byteOffset":185472,
			"target":34962
		},
		{
			"buffer":0,
			"byteLength":5130,
			"byteOffset":205992,
			"target":34963
		},
		{
			"buffer":0,
			"byteLength":31620,
			"byteOffset":211124,
			"target":34962
		},
		{
			"buffer":0,
			"byteLength":31620,
			"byteOffset":242744,
			"target":34962
		},
		{
			"buffer":0,
			"byteLength":21080,
			"byteOffset":274364,
			"target":34962
		},
		{
			"buffer":0,
			"byteLength":10842,
			"byteOffset":295444,
			"target":34963
		},
		{
			"buffer":0,
			"byteLength":5136,
			"byteOffset":306288,
			"target":34962
		},
		{
			"buffer":0,
			"byteLength":5136,
			"byteOffset":311424,
			"target":34962
		},
		{
			"buffer":0,
			"byteLength":3424,
			"byteOffset":316560,
			"target":34962
		},
		{
			"buffer":0,
			"byteLength":996,
			"byteOffset":319984,
			"target":34963
		},
		{
			"buffer":0,
			"byteLength":2328,
			"byteOffset":320980,
			"target":34962
		},
		{
			"buffer":0,
			"byteLength":2328,
			"byteOffset":323308,
			"target":34962
		},
		{
			"buffer":0,
			"byteLength":1552,
			"byteOffset":325636,
			"target":34962
		},
		{
			"buffer":0,
			"byteLength":744,
			"byteOffset":327188,
			"target":34963
		},
		{
			"buffer":0,
			"byteLength":2880,
			"byteOffset":327932,
			"target":34962
		},
		{
			"buffer":0,
			"byteLength":2880,
			"byteOffset":330812,
			"target":34962
		},
		{
			"buffer":0,
			"byteLength":1920,
			"byteOffset":333692,
			"target":34962
		},
		{
			"buffer":0,
			"byteLength":480,
			"byteOffset":335612,
			"target":34963
		}
	],
	"buffers":[
		{
			"byteLength":336092,
			"uri":"low_poly_earth.bin"
		}
	]
}
